<svg xmlns="http://www.w3.org/2000/svg" version="1.0" viewBox="335.7 272.5 366.12 491"><path d="M492.4 298.3c-14 14.3-25.4 26.2-25.2 26.5.2.4 11.7 11.9 25.5 25.6l25.3 24.9 6.7-6.4c24.1-22.8 45.5-43.9 45.1-44.6-.1-.4-11.9-12.3-26.1-26.3l-25.8-25.5zM478 554.2v170.6l20.1 19.4c11.1 10.6 20.5 19.3 21 19.3.4 0 8.8-7.7 18.6-17.1 18.4-17.6 27.4-26.1 50.3-47.4 7.4-6.9 31.4-29.6 53.4-50.5s44.6-42.2 50.3-47.4c5.7-5.1 10.3-9.4 10.1-9.6-.2-.1-16.1 0-35.4.3l-35 .4-36.5 35.3-36.4 35.2-.3-138.9c-.1-76.3-.5-138.8-1-138.8-.4 0-9.3 8.5-19.7 19l-19 19-13-12.8c-7.1-7-16.3-15.8-20.2-19.7l-7.3-6.9zM394.9 462.7c-32.4 32.3-58.8 59-58.7 59.4.5 1.3 19.3 15.4 35.3 26.6 16.9 11.7 45.1 30.3 46 30.3.3 0 .5-16.1.5-35.8v-35.8l19-18.8 19-18.8v-32.9c0-22.2-.3-32.9-1-32.9-.6 0-27.6 26.4-60.1 58.7"/><path d="m580.8 437.7.3 33.8 18.4 18.5 18.5 18.5v34.3c0 18.8.3 34.2.6 34.2 2.5 0 78.9-52.8 80.8-55.8.5-.8-116-116-118.3-117-.3-.1-.5 15-.3 33.5M350.6 592l-14.9.5 20.9 20c11.5 11 28.1 26.8 36.9 35 8.8 8.3 26.2 24.8 38.6 36.7 12.5 12 23 21.8 23.3 21.8s.6-14.1.6-31.3v-31.2L442.3 630c-7.6-7.5-19.7-19.3-26.9-26.3L402.3 591l-18.4.2c-10.1.1-25.1.5-33.3.8"/></svg>